# xmcd
#
# Track frame offsets:
#	150
#	3185
#	40535
#	57782
#	85835
#	114322
#	155435
#	176930
#	197805
#	229197
#	283925
#	301650
#
# Disc length: 4521 seconds
#
# Revision: 2
# Processed by: cddbd v1.4PL0 Copyright (c) Steve Scherf et al.
# Submitted via: audiograbber 1.82.02
#
DISCID=9111a70c
DTITLE=Ville Emard Blues Band - Live A Montréal
DYEAR=1992
DGENRE=Blues
TTITLE0=Soumis
TTITLE1=Octobre (Au Mois De Mai)
TTITLE2=Ville Emard Blues
TTITLE3=That Ain't No Way To Be
TTITLE4=Ode (A Une Belle Inconnue)
TTITLE5=Kondy Donky
TTITLE6=Indian Giver God
TTITLE7=City Music
TTITLE8=Poirots Névrosés
TTITLE9=Strangle
TTITLE10=Yama Nekh
TTITLE11=You And Your Mother
EXTD=
EXTT0=
EXTT1=
EXTT2=
EXTT3=
EXTT4=
EXTT5=
EXTT6=
EXTT7=
EXTT8=
EXTT9=
EXTT10=
EXTT11=
PLAYORDER=
